<svg height="464pt" viewBox="0 0 464 464" width="464pt" xmlns="http://www.w3.org/2000/svg"><path d="m352 112h16v32h32v82.167969c4.808594-1.28125 9.785156-2.070313 14.921875-2.160157 11.839844-.136718 23.148437 2.886719 33.078125 8.632813v-200.640625h-112v48h16zm48-64h16v16h-16zm0 32h16v16h-16zm-32-32h16v16h-16zm0 32h16v16h-16zm0 0"/><path d="m304 96h32v16h-32zm0 0"/><path d="m352 0h80v16h-80zm0 0"/><path d="m288 128h64v16h-64zm0 0"/><path d="m112 32h112v16h-112zm0 0"/><path d="m288 192h24v16h-24zm0 0"/><path d="m289.769531 260.640625c3.285157-1.425781 6.671875-2.640625 10.230469-3.382813 16.902344-3.515624 34.136719.566407 47.289062 11.261719 2.261719 1.839844 4.296876 3.878907 6.214844 6 4.023438-18.160156 15.992188-33.648437 31.9375-42.519531h-1.441406v-72h-128v68.894531c14.6875 5.984375 26.863281 17.152344 33.769531 31.746094zm-17.769531-84.640625h96v48h-96zm0 0"/><path d="m328 192h24v16h-24zm0 0"/><path d="m320 356.136719c4.425781-3.960938 8.984375-7.535157 13.695312-10.585938 11.464844-7.40625 18.304688-19.949219 18.304688-33.550781 0-12.105469-5.390625-23.425781-14.800781-31.0625-7.175781-5.832031-16.085938-8.921875-25.3125-8.921875-2.855469 0-5.742188.296875-8.613281.894531-15.175782 3.167969-27.410157 15.539063-30.449219 30.777344-3.160157 15.871094 2.929687 31.496094 15.878906 40.777344 4.609375 3.304687 9.953125 7.351562 15.289063 12v-60.464844h16v19.054688l20.421874-10.207032 7.160157 14.3125-27.574219 13.785156zm0 0"/><path d="m175.289062 344.472656c12.957032-9.28125 19.039063-24.90625 15.878907-40.777344-3.03125-15.238281-15.273438-27.605468-30.449219-30.773437-2.871094-.601563-5.757812-.898437-8.613281-.898437-9.226563 0-18.136719 3.089843-25.3125 8.921874-9.402344 7.628907-14.792969 18.949219-14.792969 31.054688 0 13.601562 6.839844 26.144531 18.304688 33.550781 4.710937 3.050781 9.28125 6.617188 13.695312 10.585938v-23.183594l-27.574219-13.792969 7.160157-14.3125 20.414062 10.207032v-19.054688h16v60.472656c5.335938-4.65625 10.671875-8.695312 15.289062-12zm0 0"/><path d="m415.183594 240.007812c-25.09375.417969-46.246094 21.152344-47.152344 46.214844-.480469 13.289063 4.375 25.824219 13.671875 35.296875 8.433594 8.59375 17.664063 18.390625 26.289063 29.265625v-78.785156h16v19.054688l20.421874-10.207032 7.160157 14.3125-27.574219 13.785156v41.230469c7.816406-10.328125 15.761719-19.085937 24.03125-26.496093 10.144531-9.085938 15.96875-22.09375 15.96875-35.679688 0-12.976562-5.097656-25.128906-14.34375-34.222656-9.046875-8.90625-20.976562-13.777344-33.65625-13.777344-.273438 0-.542969 0-.816406.007812zm0 0"/><path d="m262.664062 285.328125c3.359376-6.191406 7.960938-11.617187 13.320313-16.144531-7.59375-17.6875-25.273437-29.503906-44.800781-29.183594-18.617188.3125-35.550782 12.136719-43.054688 29.28125 9.398438 7.976562 16.269532 18.902344 18.734375 31.277344 1.976563 9.921875 1.214844 19.738281-1.710937 28.761718 5.925781 6.246094 12.441406 13.414063 18.847656 21.480469v-78.800781h16v19.054688l20.425781-10.207032zm0 0"/><path d="m257.199219 300.34375-17.199219 8.601562v41.277344c6.089844-8.015625 12.3125-15.046875 18.710938-21.335937-2.808594-8.910157-3.519532-18.566407-1.574219-28.328125.015625-.070313.046875-.132813.0625-.214844zm0 0"/><path d="m136 0h64v16h-64zm0 0"/><path d="m110.488281 274.519531c1.917969-2.121093 3.953125-4.160156 6.214844-6 3.496094-2.847656 7.296875-5.183593 11.296875-7.078125v-101.441406h-112v72.601562c9.878906-5.753906 21.128906-8.792968 33.078125-8.59375 29.664063.488282 55.152344 22.289063 61.410156 50.511719zm-14.488281-98.519531h16v16h-16zm-32 0h16v16h-16zm-16 16h-16v-16h16zm0 0"/><path d="m128 144h16v112.640625c6.535156-.9375 13.289062-.792969 20 .605469 3.617188.753906 7.046875 2 10.382812 3.457031 10.449219-21.597656 32.480469-36.304687 56.539063-36.703125 3.078125-.046875 6.09375.222656 9.078125.601562v-160.601562h-144v48h32zm80-64h16v16h-16zm0 32h16v16h-16zm0 32h16v16h-16zm0 32h16v16h-16zm-48-96h16v16h-16zm0 32h16v16h-16zm0 32h16v16h-16zm0 32h16v16h-16zm-48-80v-16h16v16zm0 0"/><path d="m15.96875 323.671875c8.269531 7.417969 16.214844 16.175781 24.03125 26.503906v-41.230469l-27.574219-13.792968 7.160157-14.3125 20.414062 10.214844v-19.054688h16v78.785156c8.625-10.875 17.855469-20.671875 26.289062-29.265625 9.296876-9.480469 14.160157-22.007812 13.671876-35.296875-.898438-25.070312-22.050782-45.808594-47.152344-46.214844-.265625-.007812-.535156-.007812-.808594-.007812-12.679688 0-24.601562 4.871094-33.65625 13.777344-9.246094 9.09375-14.34375 21.246094-14.34375 34.222656 0 13.585938 5.824219 26.59375 15.96875 35.671875zm0 0"/><path d="m32 128h80v16h-80zm0 0"/><path d="m424 352h-16v97.007812c-23.558594-6.917968-53.34375-13.984374-88-18.839843v-70.167969h-16v68.136719c-19.953125-2.28125-41.382812-3.722657-64-4.007813v-72.128906h-16v72.128906c-22.617188.285156-44.046875 1.726563-64 4.007813v-68.136719h-16v70.175781c-34.65625 4.855469-64.441406 11.914063-88 18.839844v-97.015625h-16v101.992188c-11.28125 3.695312-20.710938 7.175781-27.839844 10.007812h439.679688c-7.128906-2.832031-16.558594-6.3125-27.839844-10.007812zm0 0"/></svg>